<svg xmlns="http://www.w3.org/2000/svg" width="1200" height="630" viewBox="0 0 1200 630">
  <defs>
    <radialGradient id="vgn" cx="50%" cy="50%" r="75%">
      <stop offset="0%" stop-color="#1a0808" stop-opacity="0"/>
      <stop offset="100%" stop-color="#000000" stop-opacity="0.55"/>
    </radialGradient>
  </defs>

  <rect width="1200" height="630" fill="#0A0A0A"/>
  <rect width="1200" height="630" fill="url(#vgn)"/>

  <rect x="0" y="0" width="1200" height="5" fill="#C8102E"/>
  <rect x="0" y="625" width="1200" height="5" fill="#C8102E"/>

  <rect x="70" y="100" width="3" height="320" fill="#C8102E"/>

  <g transform="translate(90,215) scale(0.394)">
    <path fill="#FFFFFF" fill-rule="evenodd" d="M226,355C229,354 233,353 235,353C237,353 239,353 240,352C240,351 242,351 245,350C250,350 258,347 261,346C262,346 264,345 266,345C268,344 269,343 270,343C270,342 271,342 272,342C273,342 292,333 293,332C294,331 298,329 302,326C303,326 304,325 305,324C306,324 307,323 307,323C307,322 308,322 308,322C309,322 310,321 311,321C311,320 312,319 313,318C320,315 339,296 348,284C351,280 361,264 362,261C363,260 363,259 364,258C366,255 370,244 373,236C374,233 375,230 375,229C376,227 376,225 377,222C377,219 378,217 378,217C378,216 379,212 379,208C380,203 380,198 381,196C383,187 381,151 377,135C374,123 373,119 372,119C371,118 371,117 371,115C371,114 370,113 370,111C369,110 368,109 368,107C368,106 367,105 366,104C366,103 365,102 365,101C365,100 364,98 362,95C361,93 360,91 359,90C358,88 350,75 349,74C349,74 346,71 344,67C331,51 309,32 291,23C282,19 280,18 272,15C270,14 267,12 265,12C263,11 260,10 259,10C257,10 256,10 256,9C255,9 253,8 251,7C248,7 246,6 245,6C241,4 207,0 192,0C176,0 140,4 136,6C136,7 134,7 131,7C129,8 127,9 126,9C126,10 125,10 123,10C121,10 119,11 110,15C108,15 106,17 104,17C89,24 81,29 68,38C58,46 46,57 39,65C37,68 35,71 35,71C34,71 32,76 27,83C27,84 26,85 25,86C25,87 24,88 24,88C24,88 23,89 22,90C22,91 21,93 21,93C20,94 15,105 13,111C12,113 10,117 9,119C9,121 8,123 8,124C8,125 7,127 6,128C6,130 5,133 5,134C5,136 4,138 4,139C3,141 2,145 2,149C2,154 1,162 0,167C0,173 0,181 0,187C1,193 2,201 2,206C2,211 3,215 4,217C4,218 5,220 5,222C5,224 6,227 6,228C7,229 8,232 8,233C8,235 8,236 9,237C9,237 10,239 11,240C11,242 12,244 12,245C13,246 15,251 17,257C18,258 19,261 21,263C23,266 24,269 25,270C25,271 27,273 28,275C30,277 31,279 31,280C31,280 32,282 33,283C34,284 37,288 40,291C44,296 59,311 65,316C69,319 83,329 90,332C97,337 109,342 110,342C111,342 112,343 112,343C113,343 114,344 115,344C116,344 118,345 119,345C122,347 127,348 138,351C140,352 146,353 151,353C156,354 161,355 161,355C161,356 174,356 190,356C212,356 221,356 226,355zM517,345C519,342 521,339 521,339C523,336 537,317 540,313C542,310 543,307 544,307C545,306 547,302 550,299C553,295 555,291 556,291C556,290 558,288 559,287C561,283 574,265 577,261C578,259 580,257 580,257C580,256 596,234 598,231C599,230 600,229 600,228C600,228 600,227 601,227C602,226 604,222 607,219C610,215 612,211 613,210C614,210 616,207 617,204C619,202 623,196 626,192C629,188 632,183 633,182C634,181 635,179 636,178C639,174 655,152 656,150C657,149 660,144 663,140C666,135 669,132 669,131C669,131 670,130 670,130C671,129 672,128 672,127C672,127 672,126 673,126C673,126 675,124 676,122C677,120 679,118 679,118C680,118 680,117 680,117C680,116 682,113 684,110C687,107 689,104 689,103C689,102 690,102 690,101C691,101 692,100 692,100C692,99 692,98 693,98C695,96 706,80 711,73C713,70 715,67 716,66C717,65 719,61 722,57C725,54 727,50 728,49C728,49 730,47 731,45C733,42 746,23 748,21C748,21 749,20 749,19C749,18 750,18 750,17C751,17 752,16 752,16C752,15 753,13 754,12C756,10 757,8 757,7C757,6 744,6 706,6L656,6L646,20C640,28 634,36 633,37C632,39 630,41 630,41C630,43 626,47 624,50C623,51 621,53 620,55C619,57 617,59 617,59C616,59 616,59 616,60C616,61 608,71 599,84C589,97 581,109 580,110C579,111 578,113 578,113C577,114 575,116 574,118C573,120 571,122 571,122C570,122 570,123 570,123C570,124 570,125 569,125C569,125 567,127 566,129C565,131 562,134 561,136C554,145 541,163 541,164C541,165 541,165 540,165C540,165 538,167 537,169C534,173 534,173 531,177C530,178 528,181 527,182C526,184 525,185 525,185C524,185 524,186 524,187C524,187 524,188 523,188C522,188 522,189 521,190C521,191 519,193 518,195C516,198 514,200 514,201C513,201 507,210 500,220C492,230 485,240 484,241C482,243 481,245 481,246C480,247 479,248 479,248C478,248 478,249 478,249C478,250 477,251 477,251C476,252 475,254 474,255C473,256 472,258 470,260C469,261 468,263 468,263C462,271 435,308 434,311C432,312 431,314 430,315C429,316 427,319 425,322C424,324 422,326 422,326C421,326 421,327 421,327C421,328 420,330 414,337C412,340 405,349 405,350C405,350 429,350 459,350L514,350L517,345zM766,349C766,349 763,344 761,342C760,341 759,339 757,337C756,335 750,327 745,319C740,312 735,306 735,305C735,305 722,287 719,283C718,283 716,280 715,277C712,273 698,254 696,251C696,251 694,248 692,245C689,240 687,239 687,241C687,241 685,243 683,246C681,249 679,251 679,251C679,252 678,253 678,253C677,254 674,257 672,261C669,265 666,268 666,268C666,268 661,274 656,281C651,288 646,294 646,295C645,295 642,299 640,302C637,306 634,309 634,309C633,309 633,316 634,316C634,317 647,334 650,339C650,340 652,342 653,344C655,346 656,348 656,349C656,350 672,350 711,350C741,350 766,350 766,349zM1024,346C1025,343 1027,339 1028,335C1030,331 1032,328 1032,328C1033,327 1033,326 1033,325C1033,324 1034,322 1034,320C1035,319 1036,316 1037,314C1038,312 1040,307 1042,303C1044,300 1046,295 1046,294C1047,292 1048,289 1052,281C1052,279 1054,276 1055,274C1056,271 1057,269 1060,262C1063,255 1068,244 1069,240C1070,239 1071,236 1072,234C1072,232 1074,229 1074,227C1075,226 1076,223 1077,221C1080,214 1082,210 1083,207C1086,200 1087,198 1089,194C1090,191 1091,189 1091,188C1091,187 1092,187 1092,187C1092,187 1093,186 1093,185C1093,185 1094,182 1095,180C1096,178 1097,175 1098,173C1099,171 1100,168 1101,167C1103,161 1105,156 1107,153C1107,151 1108,149 1108,149C1108,148 1108,147 1109,147C1110,147 1110,146 1110,145C1110,145 1111,143 1111,141C1112,140 1114,137 1114,135C1115,132 1117,129 1118,128C1118,126 1119,124 1119,124C1119,123 1120,120 1122,116C1126,108 1126,107 1132,93C1134,89 1138,81 1141,73C1141,71 1143,68 1144,66C1146,61 1148,56 1150,53C1150,51 1151,48 1152,47C1152,46 1154,43 1154,41C1155,38 1157,35 1158,34C1158,32 1159,30 1159,29C1159,29 1160,28 1160,27C1161,26 1162,25 1162,24C1162,23 1163,21 1164,19C1165,17 1166,14 1167,13C1167,11 1168,9 1168,8L1168,6L1122,6L1075,6L1074,10C1073,13 1071,16 1070,17C1070,19 1069,21 1069,21C1069,22 1068,23 1068,24C1067,25 1066,26 1066,27C1066,28 1065,30 1065,32C1063,35 1060,41 1058,45C1057,49 1056,50 1053,59C1052,61 1050,65 1050,66C1048,70 1046,75 1044,79C1043,81 1042,84 1042,85C1041,87 1040,90 1039,92C1038,94 1037,97 1036,98C1036,99 1034,103 1033,105C1031,111 1029,114 1027,119C1026,123 1023,128 1022,133C1021,134 1019,138 1018,139C1018,141 1016,144 1016,146C1014,151 1012,154 1010,159C1008,165 1006,168 1004,173C1001,181 1000,183 999,187C998,189 996,192 996,193C995,195 994,198 993,200C992,202 991,204 991,204C991,205 990,207 988,211C987,214 985,218 984,220C984,222 982,225 981,227C980,229 979,232 979,233C978,235 977,238 976,240C975,242 973,245 973,247C972,249 971,252 970,253C970,254 968,258 967,261C966,263 964,266 964,267C964,269 963,271 962,272C962,273 961,274 961,274C960,274 960,275 960,276C960,277 959,279 959,281C957,283 955,288 952,295C952,296 950,300 948,303C947,307 945,311 944,313C944,315 942,318 941,320C940,322 939,325 938,327C937,330 936,332 932,341C931,343 930,345 930,346C929,347 929,348 929,349C929,350 945,350 975,350L1022,350L1024,346zM176,277C171,277 166,276 165,275C164,275 162,274 161,274C160,274 158,274 157,273C156,273 153,271 150,270C146,268 137,262 136,261C136,260 135,260 135,260C134,260 132,258 130,256C127,254 125,252 125,252C124,252 122,249 119,246C117,242 114,239 114,239C114,239 113,237 113,236C112,235 112,234 111,234C111,234 110,233 110,232C109,231 109,230 108,229C106,225 101,214 101,211C101,210 100,208 100,207C98,206 97,192 97,178C97,165 98,152 100,148C100,147 101,145 101,144C101,143 102,141 102,139C103,138 104,135 106,133C106,130 108,127 109,125C111,121 120,109 124,105C131,99 136,95 137,95C137,95 138,94 138,93C139,93 140,92 140,92C141,92 142,92 142,91C142,91 144,90 146,89C149,88 152,86 153,85C155,85 157,84 157,84C158,84 160,83 161,83C168,80 176,79 190,79C205,79 214,80 221,83C222,83 224,84 225,84C225,84 228,85 231,87C233,88 236,89 236,89C237,89 239,90 241,92C243,94 245,95 246,95C247,95 262,109 266,115C268,117 269,119 269,120C269,121 269,121 270,121C271,121 277,133 279,139C281,143 283,152 283,156C284,159 284,163 285,165C286,172 286,185 285,191C284,193 284,198 283,201C283,203 282,207 281,209C281,210 280,213 280,214C280,215 280,217 279,218C278,219 277,223 275,226C273,230 271,233 270,234C270,235 269,236 269,236C269,237 264,244 258,250C254,255 240,266 238,266C238,266 237,266 237,267C237,267 234,269 232,270C229,271 226,273 225,273C224,274 222,274 220,274C219,274 217,275 215,275C212,277 188,278 176,277zM886,215C887,212 889,207 891,203C891,202 893,197 895,193C897,190 899,185 899,183C900,182 901,179 902,177C903,175 904,172 905,170C906,168 908,165 909,163C910,160 911,157 912,156C912,154 913,153 913,152C913,151 914,150 914,150C914,150 915,149 915,148C915,147 916,146 916,144C917,143 918,140 919,138C920,136 922,132 922,131C923,129 925,125 925,124C926,122 927,119 928,118C929,115 929,115 925,107C925,105 924,103 924,103C924,102 923,100 923,98C921,95 919,91 914,79C912,73 910,69 908,66C908,64 907,62 907,61C907,61 906,59 906,57C904,55 902,50 900,44C898,39 896,36 894,31C893,28 891,24 891,23C890,22 889,19 888,18C888,16 887,14 887,13C887,13 886,11 885,9L883,6L832,6C783,6 782,6 782,8C782,9 783,11 783,13C784,14 786,17 786,19C790,28 791,30 793,34C794,37 796,41 797,44C798,46 800,50 800,51C801,53 802,55 802,56C802,57 803,58 804,59C804,60 805,61 805,62C805,63 806,65 811,76C813,80 814,83 814,84C814,84 815,87 817,90C818,93 820,97 821,99C822,101 823,104 824,105C824,107 825,109 825,110C825,111 826,112 826,113C827,114 828,115 828,116C828,117 830,122 833,127C833,129 834,131 834,131C834,132 834,133 835,133C836,133 836,133 836,134C836,135 837,137 838,139C838,141 840,144 840,146C844,154 845,157 847,159C847,161 848,163 848,164C848,165 849,166 850,167C850,168 851,169 851,170C851,170 851,172 852,173C854,177 857,184 857,185C857,186 858,187 858,187C858,187 859,187 859,188C859,189 860,191 864,200C864,202 866,205 867,207C869,213 871,218 873,220C873,222 874,224 874,225C874,226 874,227 875,227C875,227 876,229 877,230C877,233 877,233 881,226C883,222 885,217 886,215zM494,99C496,98 497,96 498,96C498,95 500,92 502,89C505,87 507,84 507,84C507,84 510,81 512,77C515,73 518,70 519,69C521,67 524,63 528,58C530,55 532,53 532,53C533,52 535,50 537,47C540,43 541,39 539,37C538,36 537,35 536,34C536,33 532,28 528,22C525,17 521,11 520,10C520,9 519,7 518,7C517,6 493,6 464,6C420,6 412,6 412,7C412,8 414,11 416,15C419,18 421,21 421,22C421,22 421,23 422,23C423,23 432,36 434,41C435,42 436,43 437,43C438,44 444,53 446,58C447,59 448,60 448,61C449,61 450,63 451,64C452,65 454,69 457,72C459,75 461,79 461,79C461,80 462,80 462,80C463,80 463,81 464,82C464,83 465,84 465,85C466,85 468,89 471,93C474,96 476,100 477,101C477,101 479,104 481,107L484,112L488,107C491,104 493,101 494,99z"/>
  </g>

  <text x="95" y="415" fill="#C4A459" font-family="Georgia,'Times New Roman',serif" font-size="22" letter-spacing="7">TRACK DAY SIGNATURE</text>

  <rect x="90" y="446" width="400" height="1" fill="#C4A459" opacity="0.35"/>

  <text x="95" y="477" fill="rgba(255,255,255,0.48)" font-family="Georgia,serif" font-size="15" letter-spacing="2.5">Circuit de Haute Saintonge · Tracé Beltoise</text>

  <text x="95" y="507" fill="rgba(255,255,255,0.3)" font-family="Georgia,serif" font-size="13" letter-spacing="2">Saison 2027 · Vingt pilotes par session</text>

  <text x="95" y="566" fill="rgba(255,255,255,0.2)" font-family="Georgia,serif" font-size="13" letter-spacing="1.5">www.oxvehicle.fr</text>

  <rect x="638" y="80" width="1" height="470" fill="rgba(255,255,255,0.06)"/>

  <g transform="translate(685,100) scale(0.2867)">
    <path fill="#FFFFFF" fill-rule="evenodd" d="M746,1407C748,1405 749,1403 749,1403C749,1402 750,1402 750,1401C751,1400 754,1396 756,1392C758,1389 761,1385 761,1385C761,1385 765,1380 768,1374C772,1368 776,1362 776,1362C777,1362 777,1362 777,1361C777,1360 781,1354 786,1348C792,1339 795,1334 795,1333C795,1333 795,1332 796,1332C796,1332 804,1320 805,1318C805,1318 808,1314 810,1311C813,1307 815,1304 815,1304C815,1303 817,1300 820,1296C823,1292 825,1289 825,1289C825,1288 826,1287 828,1285C829,1284 830,1282 830,1282C830,1281 831,1279 832,1278C834,1276 835,1275 835,1275C835,1274 843,1262 844,1261C845,1261 845,1260 845,1260C845,1259 856,1242 861,1236C862,1235 863,1233 863,1232C863,1232 863,1231 864,1231C865,1230 873,1218 873,1217C873,1217 873,1216 874,1216C875,1215 883,1204 883,1204C883,1203 884,1201 886,1200C887,1198 888,1196 888,1196C888,1195 891,1191 894,1186C898,1181 901,1177 901,1176C901,1176 902,1175 902,1175C902,1175 903,1175 903,1174C903,1173 919,1149 920,1148C921,1148 921,1147 921,1146C921,1146 921,1145 922,1145C923,1144 929,1135 929,1134C929,1133 930,1133 930,1133C930,1133 931,1132 931,1132C931,1131 931,1130 932,1130C933,1129 939,1120 939,1119C939,1119 939,1118 940,1118C941,1117 949,1105 949,1104C949,1103 949,1103 950,1103C950,1103 951,1102 951,1101C952,1099 954,1096 955,1095C955,1095 956,1093 958,1091C959,1089 960,1087 960,1087C961,1086 969,1074 969,1073C969,1072 969,1072 970,1072C970,1072 972,1068 975,1064C977,1061 980,1057 981,1056C981,1056 982,1054 982,1054C982,1053 984,1051 986,1049C993,1042 992,1042 1073,1042C1120,1042 1145,1042 1146,1041C1146,1040 1147,1040 1148,1040C1150,1040 1157,1037 1159,1035C1160,1035 1160,1034 1161,1034C1163,1034 1172,1023 1177,1016C1179,1013 1182,1008 1184,1007C1185,1006 1186,1004 1186,1003C1186,1003 1186,1002 1187,1002C1187,1002 1188,1001 1188,1000C1189,998 1191,995 1192,994C1193,993 1205,973 1209,967C1210,964 1212,961 1212,961C1213,960 1215,956 1218,950C1219,948 1220,946 1220,946C1221,945 1223,940 1225,936C1225,935 1228,930 1230,924C1232,920 1235,915 1235,914C1235,912 1236,910 1237,908C1238,906 1239,903 1239,902C1239,902 1240,901 1240,901C1240,901 1241,900 1241,899C1241,898 1242,896 1242,895C1243,894 1244,892 1244,891C1244,889 1244,888 1245,888C1245,887 1246,886 1246,884C1247,882 1249,876 1250,873C1250,872 1251,870 1251,868C1252,866 1253,865 1253,864C1254,864 1254,862 1254,861C1254,859 1254,857 1255,857C1255,856 1257,850 1259,843C1259,841 1261,837 1262,834C1263,828 1264,824 1266,814C1267,811 1268,808 1268,808C1269,807 1269,805 1269,802C1269,800 1269,797 1270,796C1271,794 1273,784 1274,774C1275,764 1277,752 1278,748C1279,747 1279,741 1279,735C1279,730 1279,723 1280,720C1280,718 1281,701 1282,684C1283,666 1283,646 1284,639C1284,626 1284,622 1279,620C1277,618 1277,618 1274,620C1271,622 1268,624 1266,625C1263,626 1240,640 1240,641C1240,641 1238,642 1237,642C1236,643 1235,644 1235,644C1235,645 1234,645 1234,645C1233,645 1232,646 1232,646C1232,646 1232,647 1231,647C1230,647 1228,648 1227,650C1225,651 1223,652 1223,652C1222,652 1220,653 1217,655C1215,657 1210,659 1208,661C1206,662 1202,664 1200,666C1199,667 1197,668 1196,668C1196,668 1195,668 1195,669C1195,669 1194,670 1192,671C1190,672 1188,673 1186,675C1185,676 1182,677 1181,678C1180,678 1179,679 1179,679C1179,679 1178,680 1177,680C1176,681 1174,682 1169,685C1164,689 1145,700 1144,700C1143,700 1139,704 1138,706C1138,707 1136,714 1136,720C1134,738 1133,747 1132,756C1131,760 1130,765 1129,768C1129,770 1128,773 1127,775C1127,776 1126,779 1126,780C1126,782 1126,783 1125,783C1125,784 1124,786 1124,788C1123,793 1121,802 1120,803C1119,803 1119,804 1119,805C1119,806 1118,808 1118,810C1117,811 1116,814 1116,815C1116,816 1116,817 1115,817C1114,817 1114,818 1114,819C1114,820 1114,822 1113,823C1112,824 1111,828 1109,833C1108,834 1108,835 1107,836C1107,837 1104,842 1101,848C1095,860 1095,861 1092,864C1088,867 1086,867 1073,859C1068,856 1065,854 1064,854C1064,854 1062,853 1060,852C1059,850 1057,849 1056,849C1056,849 1053,847 1049,844C1045,842 1040,839 1038,838C1035,836 1027,831 1026,830C1026,829 1025,829 1025,829C1024,829 1022,828 1020,826C1019,825 1017,824 1017,824C1016,824 1011,821 1004,816C997,812 992,809 991,809C991,809 987,806 974,798C973,798 972,797 971,796C970,796 969,796 969,795C969,795 967,794 965,792C963,791 961,790 960,790C958,788 940,776 939,776C938,776 938,776 938,775C938,774 938,774 937,774C936,774 927,768 923,764C919,761 920,758 925,756C927,754 930,753 932,752C933,750 937,748 940,747C942,746 946,743 948,742C950,741 952,740 953,739C955,738 965,732 966,731C967,730 988,717 989,717C989,717 991,716 992,714C994,713 995,712 996,712C996,712 998,711 999,710C1001,708 1003,707 1004,706C1006,706 1010,703 1015,700C1020,696 1025,694 1025,694C1026,694 1026,694 1026,693C1026,693 1028,692 1030,690C1032,689 1034,688 1034,688C1036,686 1047,679 1048,679C1048,679 1049,679 1049,678C1049,678 1057,673 1066,668C1074,662 1082,657 1082,657C1082,656 1083,656 1083,656C1084,656 1087,654 1091,651C1095,649 1099,646 1100,646C1100,646 1104,644 1108,641C1111,638 1115,636 1116,636C1118,635 1121,633 1122,632C1122,632 1124,631 1126,630C1128,628 1130,627 1130,627C1130,627 1134,624 1138,622C1141,620 1145,617 1145,617C1145,616 1146,616 1146,616C1147,616 1150,614 1154,611C1158,608 1162,606 1162,606C1163,606 1172,600 1173,599C1173,599 1175,598 1177,596C1179,595 1181,594 1181,594C1181,593 1182,593 1182,593C1183,593 1185,592 1186,590C1188,589 1190,588 1190,588C1191,588 1193,587 1194,586C1196,584 1198,583 1199,583C1199,583 1200,583 1200,582C1200,582 1203,580 1206,578C1210,575 1214,572 1217,571C1219,569 1221,568 1222,568C1222,568 1223,568 1223,567C1224,566 1233,560 1234,560C1234,560 1236,559 1237,558C1238,556 1240,555 1240,555C1241,555 1243,554 1245,552C1246,551 1248,550 1248,550C1250,550 1280,528 1282,526L1284,523L1284,465C1284,433 1283,406 1283,405C1280,400 1281,400 1243,400C1198,400 1190,399 1184,391C1179,385 1168,366 1168,364C1168,364 1168,363 1167,363C1167,363 1166,361 1164,359C1163,357 1162,355 1162,355C1162,355 1159,350 1156,345C1152,340 1149,335 1149,335C1149,335 1146,331 1143,326C1139,321 1136,317 1136,317C1135,317 1135,316 1135,316C1135,315 1135,314 1134,314C1134,314 1133,312 1132,311C1129,307 1122,298 1121,297C1121,297 1119,294 1117,292C1116,290 1112,285 1109,282C1106,279 1102,274 1100,272C1095,266 1071,242 1064,235C1053,226 1046,219 1042,216C1039,215 1037,213 1036,212C1036,212 1031,208 1026,204C1021,201 1016,197 1016,197C1016,196 994,183 990,180C989,180 984,177 979,174C974,170 969,168 969,168C968,168 968,168 968,167C968,166 967,166 966,166C965,166 964,166 964,165C963,165 961,163 959,162C957,161 954,160 953,159C943,154 914,141 903,137C898,136 895,134 894,134C894,133 893,133 891,133C890,133 889,133 889,132C888,132 885,130 882,130C879,129 874,127 872,126C870,126 867,125 866,125C864,125 863,125 863,124C861,123 849,120 838,118C834,117 830,116 829,116C827,115 824,115 822,115C819,115 817,115 817,114C815,112 767,109 742,109C717,109 672,113 658,117C655,118 652,118 650,118C648,118 646,118 646,119C645,120 644,120 642,120C640,120 631,122 628,124C627,125 625,125 624,125C623,125 621,126 619,126C617,127 614,128 612,128C611,128 609,128 608,129C604,131 599,133 598,133C597,133 595,133 594,134C592,135 586,137 583,138C582,138 578,139 576,141C574,142 571,143 570,143C570,143 568,143 567,144C566,144 564,145 562,146C560,147 556,149 553,150C550,152 547,153 547,153C546,153 544,154 542,156C540,157 537,158 537,158C536,158 535,159 534,160C533,160 532,161 531,161C530,161 529,161 529,162C529,163 528,163 528,163C526,163 522,165 516,169C515,170 514,170 513,171C512,171 511,172 511,172C511,173 510,173 509,173C508,173 507,174 506,174C505,175 504,176 504,176C503,176 501,177 499,178C498,180 496,181 495,181C494,181 494,181 494,182C494,182 493,183 492,183C490,184 489,185 488,186C486,187 482,190 478,192C475,195 470,198 469,199C468,200 467,201 466,201C466,201 464,203 462,204C459,206 457,208 457,208C457,208 455,209 454,210C449,214 447,216 444,218C441,220 438,222 437,224C436,225 432,228 430,230C419,239 396,262 385,274C381,279 377,284 375,286C373,288 366,297 362,303C361,305 359,307 359,307C358,308 342,330 342,331C342,331 342,332 341,332C340,332 332,345 332,346C332,346 331,347 330,349C328,350 327,352 327,352C327,353 324,357 321,362C318,367 315,373 314,376C312,378 311,380 311,380C311,380 310,382 308,384C304,393 298,398 292,398C290,399 269,400 247,400L206,400L206,465L206,530L214,535C217,538 221,540 221,540C222,540 224,541 225,542C227,544 229,545 230,545C230,545 232,546 233,547C234,548 235,550 236,550C238,551 240,552 243,554C246,556 248,557 249,558C250,558 251,559 251,559C251,559 252,560 253,560C255,561 256,562 269,571C275,575 280,578 281,578C282,578 282,578 282,579C282,580 292,586 293,586C293,586 298,589 304,593C320,604 327,608 328,608C328,608 330,609 331,610C334,613 336,614 341,617C342,618 344,619 345,620C346,620 347,621 347,621C348,621 350,622 352,624C353,625 355,626 356,626C356,626 358,627 359,628C361,630 363,631 364,631C364,631 365,631 365,632C366,633 378,641 379,641C380,641 380,641 380,642C380,642 382,643 384,644C386,646 388,647 388,647C389,648 398,654 399,654C399,654 402,656 406,659C410,662 414,664 415,664C415,664 416,664 416,665C417,666 429,674 430,674C430,674 431,674 431,675C431,675 435,678 438,680C442,682 446,685 446,685C449,687 464,697 465,697C466,697 466,697 466,698C466,698 468,699 470,700C472,702 474,703 474,703C474,704 474,704 475,704C476,704 478,705 479,706C481,708 483,709 484,709C485,709 486,709 486,710C487,711 500,720 504,722C505,722 506,723 506,723C507,724 531,739 532,739C532,739 534,740 535,741C537,743 541,745 544,747C548,749 552,751 554,753C555,754 557,755 558,755C559,755 564,760 564,762C564,764 559,768 553,772C550,773 547,774 547,775C547,775 545,776 543,777C541,778 539,780 539,780C539,780 537,781 535,782C533,784 531,785 531,785C531,786 530,786 530,786C529,786 528,787 527,787C526,788 524,790 523,790C518,793 517,794 505,801C499,805 494,808 493,808C492,809 491,810 491,810C491,811 491,811 490,811C489,811 475,820 471,823C471,823 470,824 468,825C467,825 465,826 463,828C461,829 459,830 459,830C458,831 450,836 448,838C443,840 432,848 431,848C431,849 430,849 430,849C429,849 427,850 426,851C424,853 422,854 421,854C420,855 417,856 414,858C407,862 401,865 399,865C397,865 391,859 391,857C391,856 391,855 390,855C389,855 389,854 389,853C389,853 388,850 386,849C385,847 384,845 384,844C384,844 382,840 380,835C378,830 375,825 375,824C374,823 373,820 372,819C372,817 371,816 371,815C371,813 371,812 368,806C367,804 366,802 366,801C366,801 366,799 365,798C364,796 361,786 359,776C359,774 358,772 357,770C356,769 356,767 356,765C356,763 356,761 355,760C354,760 354,758 354,756C354,753 354,749 353,746C352,743 351,738 351,734C350,726 347,712 346,708C346,706 345,704 344,703C341,701 328,693 327,693C326,693 326,693 326,692C326,692 324,691 322,690C320,688 316,686 313,684C310,682 307,680 307,680C306,680 305,680 305,679C303,678 284,665 278,662C276,660 272,658 271,657C270,656 269,655 268,655C268,655 266,654 264,652C263,651 261,650 260,650C260,650 248,642 247,641C246,640 230,630 229,630C229,630 227,629 226,628C223,625 215,620 214,620C214,620 213,619 212,618C210,616 207,617 205,620C204,623 204,626 204,650C206,711 206,720 207,721C208,722 209,728 209,734C211,758 212,766 213,770C214,772 214,775 214,778C214,780 214,782 215,782C216,783 216,785 216,788C216,790 217,794 218,795C218,796 219,799 219,802C219,804 219,806 220,806C221,807 221,809 221,811C221,814 222,817 222,819C223,821 224,824 224,826C224,828 224,829 225,830C226,830 226,831 226,833C226,834 227,837 228,838C228,839 229,842 229,844C229,845 229,847 230,848C230,848 231,850 231,851C231,853 232,856 232,857C233,858 234,860 234,862C234,864 234,865 235,865C236,865 236,866 236,868C236,869 237,872 238,873C238,874 239,876 239,877C239,879 239,880 240,880C241,880 241,881 241,882C241,884 242,886 242,887C243,888 244,890 244,891C244,892 244,893 245,893C246,893 246,894 246,895C246,896 247,898 248,899C248,901 249,903 249,904C249,904 249,906 250,907C252,911 254,915 254,917C254,917 254,918 255,918C255,918 256,919 256,921C257,923 258,924 258,924C259,925 259,926 259,927C259,929 262,935 263,936C264,936 264,937 264,937C264,938 268,946 271,953C272,955 275,961 278,966C280,971 283,976 283,976C284,976 284,977 284,977C284,978 286,980 287,984C289,987 291,990 292,991C292,992 294,994 295,996C296,997 297,999 297,1000C297,1000 297,1001 298,1001C298,1001 302,1006 306,1011C309,1016 313,1021 314,1022C320,1029 323,1032 324,1032C324,1032 325,1032 325,1033C325,1034 337,1040 342,1041C346,1042 371,1042 420,1042L494,1042L497,1046C499,1048 501,1050 501,1051C501,1051 501,1052 502,1052C502,1052 503,1053 504,1054C504,1055 505,1058 507,1059C508,1060 509,1062 509,1062C509,1063 522,1084 525,1086C525,1087 526,1089 527,1091C528,1093 530,1095 530,1095C530,1095 533,1100 536,1105C540,1110 543,1115 544,1116C545,1117 547,1120 548,1122C549,1125 551,1127 552,1128C553,1130 554,1132 556,1134C557,1136 558,1138 558,1138C559,1138 559,1138 559,1139C559,1140 569,1156 571,1158C572,1158 573,1160 573,1161C575,1165 580,1172 581,1173C582,1173 582,1174 582,1175C582,1175 582,1176 583,1176C584,1176 584,1176 584,1177C584,1178 585,1180 586,1181C588,1183 589,1185 589,1185C589,1186 595,1195 596,1196C597,1196 597,1196 597,1197C597,1198 605,1210 606,1211C607,1211 607,1212 607,1212C607,1213 615,1225 616,1226C616,1226 619,1230 621,1234C623,1237 626,1241 626,1241C627,1241 627,1242 627,1242C627,1243 634,1253 636,1256C636,1256 639,1260 641,1264C643,1267 646,1271 646,1271C647,1272 655,1284 655,1284C655,1285 656,1287 658,1288C659,1290 660,1292 660,1293C660,1293 660,1294 661,1294C662,1294 668,1304 668,1305C668,1305 670,1307 672,1309C673,1312 675,1314 675,1314C675,1315 677,1318 680,1322C682,1326 685,1329 686,1330C688,1335 698,1350 699,1350C700,1350 700,1350 700,1351C700,1351 704,1358 709,1365C714,1373 718,1379 718,1380C718,1380 719,1382 720,1383C722,1385 723,1386 723,1387C723,1388 724,1390 726,1391C727,1393 728,1394 728,1395C728,1395 729,1397 730,1398C732,1400 733,1401 733,1402C733,1402 734,1404 736,1406C740,1411 742,1411 746,1407zM738,1162C733,1158 729,1153 729,1152C729,1152 728,1150 726,1149C725,1147 724,1146 724,1145C724,1145 723,1143 722,1141C720,1140 719,1138 719,1137C719,1137 718,1135 716,1133C715,1132 714,1130 714,1130C714,1129 712,1126 709,1122C706,1118 704,1114 704,1113C704,1113 704,1112 703,1112C703,1112 699,1106 696,1100C692,1094 688,1089 688,1088C687,1087 687,1086 686,1085C686,1084 685,1082 683,1080C682,1079 680,1075 678,1072C677,1070 675,1067 675,1067C675,1067 674,1065 673,1063C672,1061 670,1059 670,1059C670,1059 669,1057 668,1055C666,1053 665,1051 665,1051C664,1051 664,1051 664,1050C664,1049 656,1038 654,1035C654,1034 653,1034 653,1033C653,1033 652,1032 651,1030C650,1029 648,1026 646,1023C644,1020 642,1018 642,1018C641,1018 641,1017 641,1017C641,1016 640,1014 639,1013C638,1012 634,1008 632,1004C629,1001 626,997 625,996C624,996 623,994 622,992C621,991 618,987 615,984C609,978 605,972 602,967C602,966 601,963 601,961C601,956 601,956 609,951C616,946 635,934 641,931C645,929 648,928 648,927C649,926 650,926 651,926C652,926 653,926 653,925C654,924 671,913 675,911C676,911 678,910 680,909C683,906 686,904 688,903C689,903 695,899 702,894C710,890 716,886 717,886C720,884 723,882 725,881C727,879 732,875 736,874C738,873 739,872 739,872C739,871 740,871 742,871C745,871 752,874 758,879C759,880 761,881 762,881C762,881 764,882 765,883C767,884 770,886 772,887C774,888 779,892 784,895C789,898 794,901 795,902C802,905 804,907 806,908C807,909 809,911 812,912C814,913 817,915 818,917C820,918 822,919 823,919C823,919 824,919 824,920C824,920 825,921 827,922C829,923 831,924 831,924C833,926 841,931 842,931C842,931 844,932 845,933C849,936 852,938 854,939C856,939 860,942 863,944C867,947 871,949 871,949C872,949 872,949 872,950C872,950 874,952 877,953C883,957 884,959 883,963C881,967 868,986 864,990C863,991 862,992 862,992C862,993 849,1010 848,1011C848,1011 846,1013 844,1016C843,1018 841,1021 839,1022C838,1023 836,1026 834,1029C832,1032 830,1034 830,1034C829,1034 829,1034 829,1035C829,1036 821,1048 820,1049C820,1049 819,1051 818,1053C816,1055 815,1057 815,1057C814,1057 814,1058 814,1059C814,1060 814,1061 813,1061C813,1061 812,1062 811,1063C811,1064 810,1066 810,1066C809,1067 794,1091 794,1092C794,1092 793,1093 793,1094C792,1095 790,1096 790,1098C788,1102 786,1104 781,1112C778,1116 776,1119 776,1120C776,1120 775,1122 774,1123C772,1125 771,1127 770,1128C766,1135 756,1152 755,1152C755,1152 753,1154 751,1157C744,1166 742,1167 738,1162zM732,646C728,644 724,641 723,640C722,639 720,638 718,637C717,637 716,636 716,636C716,635 716,635 715,635C714,635 712,634 711,632C709,631 707,630 707,630C706,630 704,629 703,628C701,626 699,625 699,625C698,625 696,624 695,622C693,621 691,620 690,620C690,620 689,620 689,619C689,619 680,613 669,606C658,599 647,592 645,591C642,589 639,587 637,586C636,586 634,584 633,583C632,583 631,582 631,582C630,582 627,580 624,578C620,576 617,574 617,574C616,574 616,574 616,573C616,572 616,572 615,572C614,572 601,564 600,563C600,562 600,562 599,562C599,562 592,558 585,553C578,549 571,544 569,543C567,542 564,540 562,539C561,538 558,536 556,535C555,534 552,533 550,531C549,530 547,529 546,529C546,529 545,529 545,528C545,528 543,526 540,525C533,521 518,511 516,510C516,509 513,507 510,506C506,504 504,502 504,502C504,501 504,501 503,501C502,501 499,499 495,496C491,494 486,491 485,490C477,486 465,478 464,477C464,476 463,476 463,476C462,476 460,475 458,474C454,470 453,466 456,461C459,454 465,442 466,440C467,440 469,437 471,434C473,432 476,426 480,422C482,418 486,413 488,411C489,409 491,406 493,404C495,402 498,398 500,396C504,390 530,365 536,360C539,357 542,355 542,355C542,355 545,352 548,350C552,348 555,345 556,345C558,343 575,331 576,331C578,330 581,328 584,325C586,324 589,323 591,322C593,321 595,320 596,319C597,319 599,317 601,317C603,316 605,315 606,314C608,313 618,308 622,307C623,306 626,305 627,304C629,304 631,303 632,303C632,303 635,302 638,301C643,298 654,294 660,293C663,292 667,291 670,290C679,288 698,284 714,283C740,280 796,283 804,287C805,288 807,288 809,288C810,288 812,288 812,289C813,290 815,290 818,291C820,291 822,292 823,292C823,293 824,293 825,293C827,293 829,294 831,294C832,295 834,296 835,296C836,296 837,296 838,297C838,298 839,298 840,298C842,298 844,299 846,300C852,303 853,303 854,303C855,303 857,303 858,304C859,304 861,306 864,307C873,311 889,318 897,323C903,326 919,336 920,337C922,339 929,344 934,347C936,348 938,350 939,351C940,351 942,354 945,356C951,361 959,368 974,384C990,399 988,398 993,404C995,406 997,409 998,410C999,411 1001,413 1002,416C1004,418 1006,421 1008,422C1009,423 1011,426 1012,428C1013,430 1016,434 1018,438C1020,441 1022,445 1023,446C1023,448 1024,449 1024,449C1024,449 1026,453 1028,456C1032,464 1032,469 1029,472C1025,475 1008,486 1007,486C1006,486 1004,487 1002,488C1001,490 999,491 998,491C998,491 996,492 995,494C993,495 991,496 990,496C990,496 989,497 988,497C987,498 986,500 984,500C980,502 977,504 975,506C974,507 971,508 969,510C967,511 964,512 962,514C961,515 959,516 959,516C958,516 956,517 955,518C951,521 948,523 944,525C942,526 941,527 940,528C939,528 938,529 938,529C937,529 935,530 934,532C932,533 930,534 930,534C929,534 928,535 927,536C926,537 924,539 922,539C918,541 901,552 899,554C898,555 895,556 893,558C891,558 889,560 888,561C887,561 885,562 884,563C883,564 878,567 874,569C870,572 867,574 866,574C866,574 865,575 864,575C864,576 862,578 854,581C853,582 852,583 852,583C851,584 843,589 843,589C842,589 833,595 832,596C832,596 830,597 828,598C826,600 824,601 823,602C822,603 819,604 817,606C815,607 810,610 806,612C802,615 799,617 798,617C798,617 797,618 796,618C795,619 794,620 792,621C787,624 785,625 783,627C782,628 780,629 778,630C777,630 776,631 776,631C776,632 776,632 775,632C774,632 772,633 771,634C767,637 764,639 760,641C758,642 757,643 756,644C755,644 754,645 754,645C753,645 751,646 750,648C745,651 741,651 732,646z"/>
  </g>
</svg>